<mxfile host="drawio-plugin" modified="2024-08-07T12:52:36.907Z" agent="5.0 (Windows NT 6.2; Win64; x64) AppleWebKit/537.36 (KHTML, like Gecko) Chrome/104.0.5112.102 Safari/537.36" etag="mhcPWR-IsrUp1RyiOQ3u" version="20.5.3" type="embed"><diagram name="第 1 页" id="RCJW-YrI7GADKJ_9KP-G"><mxGraphModel dx="1424" dy="450" grid="1" gridSize="10" guides="1" tooltips="1" connect="1" arrows="1" fold="1" page="1" pageScale="1" pageWidth="827" pageHeight="1169" background="#000000" math="0" shadow="1"><root><mxCell id="0"/><mxCell id="1" parent="0"/><mxCell id="YGNYaZbymLhRgF-y6VRQ-4" value="野性起源&lt;div style=&quot;font-size: 8px;&quot;&gt;前置模组&lt;/div&gt;" style="rounded=1;whiteSpace=wrap;html=1;fillColor=#b8f5ff;arcSize=5;labelBackgroundColor=none;fontColor=#000000;align=center;verticalAlign=top;spacing=6;spacingTop=0;" parent="1" vertex="1"><mxGeometry x="220" y="630" width="650" height="610" as="geometry"/></mxCell><mxCell id="2M-5-x-tlaTdOeUqfLkU-54" value="API" style="rounded=1;whiteSpace=wrap;html=1;strokeColor=#003366;align=center;verticalAlign=top;spacingTop=0;spacing=2;arcSize=5;fontFamily=Helvetica;fontSize=10;fontColor=#000000;labelBackgroundColor=none;fillColor=#8FF8FF;" parent="1" vertex="1"><mxGeometry x="710" y="680" width="130" height="650" as="geometry"/></mxCell><mxCell id="2M-5-x-tlaTdOeUqfLkU-2" value="" style="rounded=1;orthogonalLoop=1;jettySize=auto;html=1;fontFamily=Helvetica;fontSize=12;fontColor=#000000;labelBackgroundColor=none;elbow=vertical;strokeWidth=3;endSize=0;startSize=0;endArrow=none;endFill=0;" parent="1" source="YGNYaZbymLhRgF-y6VRQ-4" target="2M-5-x-tlaTdOeUqfLkU-1" edge="1"><mxGeometry relative="1" as="geometry"/></mxCell><mxCell id="2M-5-x-tlaTdOeUqfLkU-7" value="" style="group" parent="1" vertex="1" connectable="0"><mxGeometry x="445" y="1550" width="200" height="160" as="geometry"/></mxCell><mxCell id="2M-5-x-tlaTdOeUqfLkU-1" value="野性装饰&lt;div style=&quot;font-size: 8px;&quot;&gt;装饰模组&lt;/div&gt;" style="whiteSpace=wrap;html=1;verticalAlign=top;fillColor=#FFE6CC;fontColor=#000000;rounded=1;arcSize=9;labelBackgroundColor=none;spacing=6;spacingTop=0;gradientColor=none;" parent="2M-5-x-tlaTdOeUqfLkU-7" vertex="1"><mxGeometry width="200" height="160" as="geometry"/></mxCell><mxCell id="2M-5-x-tlaTdOeUqfLkU-5" value="&lt;span style=&quot;white-space: pre;&quot;&gt;&#9;&lt;/span&gt;就是一个简简单单的装饰模组，没什么特别的关联。&lt;div&gt;&lt;span style=&quot;white-space: pre;&quot;&gt;&#9;&lt;/span&gt;走原版风格，视觉上不要过度精细，尽量性能优先。&lt;br&gt;&lt;/div&gt;" style="text;html=1;align=left;verticalAlign=top;whiteSpace=wrap;rounded=0;fontFamily=Helvetica;fontSize=10;fontColor=#000000;labelBackgroundColor=none;" parent="2M-5-x-tlaTdOeUqfLkU-7" vertex="1"><mxGeometry x="12.5" y="40" width="175" height="100" as="geometry"/></mxCell><mxCell id="2M-5-x-tlaTdOeUqfLkU-11" value="物品与方块" style="rounded=1;whiteSpace=wrap;html=1;strokeColor=#003366;align=center;verticalAlign=top;spacingTop=0;spacing=2;arcSize=2;fontFamily=Helvetica;fontSize=10;fontColor=#000000;labelBackgroundColor=none;fillColor=#8FF8FF;" parent="1" vertex="1"><mxGeometry x="250" y="680" width="440" height="410" as="geometry"/></mxCell><mxCell id="2M-5-x-tlaTdOeUqfLkU-10" value="图标&lt;div&gt;&lt;div style=&quot;font-size: 9px;&quot;&gt;&lt;font style=&quot;font-size: 8px;&quot;&gt;作为能力的图标&lt;/font&gt;&lt;/div&gt;&lt;div style=&quot;font-size: 9px;&quot;&gt;&lt;font style=&quot;font-size: 8px;&quot;&gt;不要注册到创造物品栏&lt;/font&gt;&lt;/div&gt;&lt;/div&gt;" style="rounded=1;whiteSpace=wrap;html=1;strokeColor=#003366;align=center;verticalAlign=top;spacingTop=0;spacing=2;arcSize=8;fontFamily=Helvetica;fontSize=10;fontColor=#000000;labelBackgroundColor=none;fillColor=#8FF8FF;" parent="1" vertex="1"><mxGeometry x="510" y="710" width="100" height="50" as="geometry"/></mxCell><mxCell id="2M-5-x-tlaTdOeUqfLkU-12" value="合成材料&lt;div&gt;&lt;div style=&quot;&quot;&gt;&lt;span style=&quot;font-size: 8px;&quot;&gt;大中小灵魂水晶、灵魂水晶碎片、轻型塑料、强化塑料、&lt;/span&gt;&lt;/div&gt;&lt;div style=&quot;&quot;&gt;&lt;span style=&quot;font-size: 8px;&quot;&gt;高级导魔金属、黄铜&lt;/span&gt;&lt;/div&gt;&lt;/div&gt;" style="rounded=1;whiteSpace=wrap;html=1;strokeColor=#003366;align=center;verticalAlign=top;spacingTop=0;spacing=2;arcSize=8;fontFamily=Helvetica;fontSize=10;fontColor=#000000;labelBackgroundColor=none;fillColor=#8FF8FF;" parent="1" vertex="1"><mxGeometry x="260" y="710" width="240" height="50" as="geometry"/></mxCell><mxCell id="2M-5-x-tlaTdOeUqfLkU-24" value="&lt;p style=&quot;text-align: center; line-height: 120%; margin-top: 0px; margin-bottom: 4px;&quot;&gt;&lt;span style=&quot;&quot;&gt;扳手锤子&lt;/span&gt;&lt;/p&gt;&lt;div&gt;&lt;div style=&quot;font-size: 9px;&quot;&gt;&lt;span style=&quot;font-size: 8px;&quot;&gt;镐子和扳手生的&lt;/span&gt;&lt;br&gt;&lt;/div&gt;&lt;/div&gt;&lt;div style=&quot;&quot;&gt;&lt;span style=&quot;font-size: 8px;&quot;&gt;尽量用相同的时间挖掘不同的方块&lt;/span&gt;&lt;/div&gt;&lt;div style=&quot;&quot;&gt;&lt;span style=&quot;font-size: 8px;&quot;&gt;可旋转或者拆除基于本mod的方块，拆除会直接进玩家背包&lt;/span&gt;&lt;/div&gt;&lt;p&gt;&lt;/p&gt;" style="rounded=1;whiteSpace=wrap;html=1;strokeColor=#003366;align=left;verticalAlign=top;spacingTop=0;spacing=2;arcSize=8;fontFamily=Helvetica;fontSize=10;fontColor=#000000;labelBackgroundColor=none;fillColor=#8FF8FF;horizontal=1;spacingLeft=4;spacingRight=4;" parent="1" vertex="1"><mxGeometry x="260" y="772.5" width="110" height="100" as="geometry"/></mxCell><mxCell id="2M-5-x-tlaTdOeUqfLkU-46" value="" style="rounded=1;orthogonalLoop=1;jettySize=auto;html=1;strokeColor=#919191;strokeWidth=2;align=center;verticalAlign=middle;elbow=vertical;endArrow=none;endFill=0;entryX=0;entryY=0.5;entryDx=0;entryDy=0;exitX=1;exitY=0.5;exitDx=0;exitDy=0;" parent="1" source="2M-5-x-tlaTdOeUqfLkU-25" target="2M-5-x-tlaTdOeUqfLkU-30" edge="1"><mxGeometry relative="1" as="geometry"/></mxCell><mxCell id="2M-5-x-tlaTdOeUqfLkU-26" value="&lt;p style=&quot;text-align: center; line-height: 120%; margin-top: 0px; margin-bottom: 4px;&quot;&gt;&lt;span style=&quot;&quot;&gt;世界定位器&lt;/span&gt;&lt;br&gt;&lt;/p&gt;&lt;div&gt;&lt;div style=&quot;&quot;&gt;&lt;div style=&quot;font-size: 8px;&quot;&gt;作为可变坐标焦点使用，用坐标记录器记录，设备读取。可跨纬度工作。&lt;/div&gt;&lt;div style=&quot;font-size: 8px;&quot;&gt;方块实体，自身拥有一个uuid，以uuid作为身份，一个名字作为辨识。设备读取时候直接根据uuid找。&lt;/div&gt;&lt;div style=&quot;font-size: 8px;&quot;&gt;建表以快速查询？&lt;/div&gt;&lt;div style=&quot;font-size: 8px;&quot;&gt;&lt;span style=&quot;background-color: initial;&quot;&gt;套地狱门的区块加载规则，&lt;/span&gt;&lt;/div&gt;&lt;div style=&quot;font-size: 8px;&quot;&gt;世界保存时候持久化坐标表，查询时根据表加载区块，找不到就从表里清除，设备就不管这个坐标了。&lt;/div&gt;&lt;/div&gt;&lt;/div&gt;&lt;p&gt;&lt;/p&gt;" style="rounded=1;whiteSpace=wrap;html=1;strokeColor=#003366;align=left;verticalAlign=top;spacingTop=0;spacing=2;arcSize=8;fontFamily=Helvetica;fontSize=10;fontColor=#000000;labelBackgroundColor=none;fillColor=#8FF8FF;horizontal=1;spacingLeft=4;spacingRight=4;" parent="1" vertex="1"><mxGeometry x="370" y="890" width="130" height="150" as="geometry"/></mxCell><mxCell id="2M-5-x-tlaTdOeUqfLkU-30" value="&lt;p style=&quot;text-align: center; line-height: 120%; margin-top: 0px; margin-bottom: 4px;&quot;&gt;&lt;span style=&quot;&quot;&gt;APP api&lt;/span&gt;&lt;br&gt;&lt;/p&gt;&lt;div style=&quot;line-height: 95%;&quot;&gt;&lt;div style=&quot;line-height: 95%;&quot;&gt;&lt;div style=&quot;line-height: 95%;&quot;&gt;&lt;span style=&quot;font-size: 8px;&quot;&gt;用于&lt;/span&gt;&lt;span style=&quot;text-align: center; background-color: initial;&quot;&gt;&lt;font style=&quot;font-size: 8px;&quot;&gt;功能&lt;/font&gt;&lt;/span&gt;&lt;span style=&quot;font-size: 8px; background-color: initial;&quot;&gt;棒和其本源的功能，也就是说其实对应工具使用其实也是app。&lt;/span&gt;&lt;/div&gt;&lt;div style=&quot;font-size: 8px;&quot;&gt;一个图标&lt;/div&gt;&lt;div style=&quot;font-size: 8px;&quot;&gt;一个物品组件&lt;/div&gt;&lt;div style=&quot;font-size: 8px;&quot;&gt;一个菜单实现&lt;/div&gt;&lt;/div&gt;&lt;/div&gt;&lt;p&gt;&lt;/p&gt;" style="rounded=1;whiteSpace=wrap;html=1;strokeColor=#003366;align=left;verticalAlign=top;spacingTop=0;spacing=2;arcSize=8;fontFamily=Helvetica;fontSize=10;fontColor=#000000;labelBackgroundColor=none;fillColor=#8FF8FF;horizontal=1;spacingLeft=4;spacingRight=4;" parent="1" vertex="1"><mxGeometry x="720" y="710" width="110" height="85" as="geometry"/></mxCell><mxCell id="2M-5-x-tlaTdOeUqfLkU-31" value="&lt;p style=&quot;line-height: 120%; margin-top: 0px; margin-bottom: 4px;&quot;&gt;&lt;span style=&quot;&quot;&gt;魔能转换器&lt;/span&gt;&lt;br&gt;&lt;/p&gt;&lt;div&gt;&lt;div style=&quot;font-size: 9px;&quot;&gt;&lt;div style=&quot;text-align: left; font-size: 8px;&quot;&gt;魔电转换器、ars魔源转换器等等。一种转换一种设备，可双向转换，可配置转换率和损耗。&lt;/div&gt;&lt;div style=&quot;text-align: left; font-size: 8px;&quot;&gt;本身只带魔电转换，其他的由单独的兼容模组实现。&lt;/div&gt;&lt;div style=&quot;text-align: left; font-size: 8px;&quot;&gt;cap要的时候直接new，存另一半的cap。&lt;/div&gt;&lt;/div&gt;&lt;/div&gt;&lt;p&gt;&lt;/p&gt;" style="rounded=1;whiteSpace=wrap;html=1;strokeColor=#003366;align=center;verticalAlign=top;spacingTop=0;spacing=2;arcSize=8;fontFamily=Helvetica;fontSize=10;fontColor=#000000;labelBackgroundColor=none;fillColor=#8FF8FF;horizontal=1;spacingLeft=4;spacingRight=4;" parent="1" vertex="1"><mxGeometry x="380" y="772.5" width="140" height="110" as="geometry"/></mxCell><mxCell id="2M-5-x-tlaTdOeUqfLkU-41" value="" style="group" parent="1" vertex="1" connectable="0"><mxGeometry x="1070" y="1310" width="160" height="230" as="geometry"/></mxCell><mxCell id="2M-5-x-tlaTdOeUqfLkU-42" value="词汇表" style="whiteSpace=wrap;html=1;verticalAlign=top;fillColor=#FFE6CC;fontColor=#000000;rounded=1;arcSize=9;labelBackgroundColor=none;spacing=6;spacingTop=0;gradientColor=none;" parent="2M-5-x-tlaTdOeUqfLkU-41" vertex="1"><mxGeometry width="160" height="230" as="geometry"/></mxCell><mxCell id="2M-5-x-tlaTdOeUqfLkU-43" value="&lt;div style=&quot;font-size: 8px;&quot;&gt;魔能：本模组法力&lt;/div&gt;" style="text;html=1;align=left;verticalAlign=top;whiteSpace=wrap;rounded=0;fontFamily=Helvetica;fontSize=10;fontColor=#000000;labelBackgroundColor=none;" parent="2M-5-x-tlaTdOeUqfLkU-41" vertex="1"><mxGeometry x="8" y="30" width="142" height="190" as="geometry"/></mxCell><mxCell id="2M-5-x-tlaTdOeUqfLkU-44" value="&lt;p style=&quot;line-height: 120%; margin-top: 0px; margin-bottom: 4px;&quot;&gt;&lt;span style=&quot;background-color: initial;&quot;&gt;随机名字api&lt;/span&gt;&lt;/p&gt;&lt;div&gt;&lt;div style=&quot;font-size: 9px;&quot;&gt;&lt;div style=&quot;font-size: 8px;&quot;&gt;用于生成名字&lt;/div&gt;&lt;/div&gt;&lt;/div&gt;&lt;p&gt;&lt;/p&gt;" style="rounded=1;whiteSpace=wrap;html=1;strokeColor=#003366;align=center;verticalAlign=top;spacingTop=0;spacing=2;arcSize=8;fontFamily=Helvetica;fontSize=10;fontColor=#000000;labelBackgroundColor=none;fillColor=#8FF8FF;horizontal=1;spacingLeft=4;spacingRight=4;" parent="1" vertex="1"><mxGeometry x="720" y="900" width="110" height="40" as="geometry"/></mxCell><mxCell id="2M-5-x-tlaTdOeUqfLkU-45" value="&lt;p style=&quot;line-height: 120%; margin-top: 0px; margin-bottom: 4px;&quot;&gt;魔能水晶&lt;/p&gt;&lt;div&gt;&lt;div style=&quot;font-size: 9px;&quot;&gt;&lt;div style=&quot;text-align: left; font-size: 8px;&quot;&gt;存储魔能，纯被动。&lt;/div&gt;&lt;/div&gt;&lt;/div&gt;&lt;p&gt;&lt;/p&gt;" style="rounded=1;whiteSpace=wrap;html=1;strokeColor=#003366;align=center;verticalAlign=top;spacingTop=0;spacing=2;arcSize=8;fontFamily=Helvetica;fontSize=10;fontColor=#000000;labelBackgroundColor=none;fillColor=#8FF8FF;horizontal=1;spacingLeft=4;spacingRight=4;" parent="1" vertex="1"><mxGeometry x="260" y="882.5" width="90" height="40" as="geometry"/></mxCell><mxCell id="2M-5-x-tlaTdOeUqfLkU-49" value="" style="endArrow=none;html=1;rounded=1;strokeColor=#919191;strokeWidth=2;align=center;verticalAlign=middle;fontFamily=Helvetica;fontSize=11;fontColor=default;labelBackgroundColor=default;elbow=vertical;exitX=1;exitY=0.5;exitDx=0;exitDy=0;entryX=0;entryY=0.5;entryDx=0;entryDy=0;flowAnimation=0;shadow=0;" parent="1" source="2M-5-x-tlaTdOeUqfLkU-29" target="2M-5-x-tlaTdOeUqfLkU-30" edge="1"><mxGeometry width="50" height="50" relative="1" as="geometry"><mxPoint x="530" y="850" as="sourcePoint"/><mxPoint x="580" y="800" as="targetPoint"/></mxGeometry></mxCell><mxCell id="2M-5-x-tlaTdOeUqfLkU-50" value="&lt;p style=&quot;line-height: 120%; margin-top: 0px; margin-bottom: 4px;&quot;&gt;&lt;span style=&quot;background-color: initial;&quot;&gt;法力线api&lt;/span&gt;&lt;/p&gt;&lt;div&gt;&lt;div style=&quot;font-size: 9px;&quot;&gt;&lt;div style=&quot;text-align: left; font-size: 8px;&quot;&gt;用于魔能传输时的特效，亦可用于其他传输。&lt;/div&gt;&lt;div style=&quot;text-align: left; font-size: 8px;&quot;&gt;服务端仅发两地方块和传输的cap的包。客户端自己计算坐标然后渲染。&lt;/div&gt;&lt;/div&gt;&lt;/div&gt;&lt;p&gt;&lt;/p&gt;" style="rounded=1;whiteSpace=wrap;html=1;strokeColor=#003366;align=center;verticalAlign=top;spacingTop=0;spacing=2;arcSize=8;fontFamily=Helvetica;fontSize=10;fontColor=#000000;labelBackgroundColor=none;fillColor=#8FF8FF;horizontal=1;spacingLeft=4;spacingRight=4;" parent="1" vertex="1"><mxGeometry x="720" y="810" width="110" height="80" as="geometry"/></mxCell><mxCell id="2M-5-x-tlaTdOeUqfLkU-29" value="&lt;p style=&quot;text-align: center; line-height: 120%; margin-top: 0px; margin-bottom: 4px;&quot;&gt;&lt;span style=&quot;&quot;&gt;功能棒&lt;/span&gt;&lt;br&gt;&lt;/p&gt;&lt;div&gt;&lt;div style=&quot;font-size: 9px;&quot;&gt;&lt;div style=&quot;font-size: 8px;&quot;&gt;多功能工具，类似手机，解锁app以使用多种功能，初始自带指南APP。&lt;/div&gt;&lt;div style=&quot;font-size: 8px;&quot;&gt;其他的解锁。&lt;/div&gt;&lt;div style=&quot;font-size: 8px;&quot;&gt;比如坐标记录器APP，&lt;/div&gt;&lt;div style=&quot;font-size: 8px;&quot;&gt;拥有&lt;span style=&quot;background-color: initial;&quot;&gt;坐标记录器后解锁，功能与坐标记录器一样。&lt;/span&gt;&lt;/div&gt;&lt;div style=&quot;font-size: 8px;&quot;&gt;界面外使用的功能就是上一次在ui里用的APP。&lt;/div&gt;&lt;div style=&quot;font-size: 8px;&quot;&gt;持久化是基于玩家的，类似玩家登录在这个终端上。&lt;/div&gt;&lt;div style=&quot;font-size: 8px;&quot;&gt;待选名称：手镜，智能棒，&lt;/div&gt;&lt;div style=&quot;font-size: 8px;&quot;&gt;魔简&lt;/div&gt;&lt;/div&gt;&lt;/div&gt;&lt;p&gt;&lt;/p&gt;" style="rounded=1;whiteSpace=wrap;html=1;strokeColor=#003366;align=left;verticalAlign=top;spacingTop=0;spacing=2;arcSize=8;fontFamily=Helvetica;fontSize=10;fontColor=#000000;labelBackgroundColor=none;fillColor=#8FF8FF;horizontal=1;spacingLeft=4;spacingRight=4;" parent="1" vertex="1"><mxGeometry x="530" y="772.5" width="110" height="187.5" as="geometry"/></mxCell><mxCell id="2M-5-x-tlaTdOeUqfLkU-53" value="" style="shape=connector;rounded=1;orthogonalLoop=1;jettySize=auto;html=1;strokeColor=#919191;strokeWidth=2;align=center;verticalAlign=middle;fontFamily=Helvetica;fontSize=11;fontColor=default;labelBackgroundColor=default;elbow=vertical;endArrow=none;endFill=0;jumpSize=0;" parent="1" source="2M-5-x-tlaTdOeUqfLkU-26" target="2M-5-x-tlaTdOeUqfLkU-25" edge="1"><mxGeometry relative="1" as="geometry"><mxPoint x="370" y="970" as="sourcePoint"/><mxPoint x="490" y="896" as="targetPoint"/></mxGeometry></mxCell><mxCell id="2M-5-x-tlaTdOeUqfLkU-25" value="&lt;p style=&quot;text-align: center; line-height: 120%; margin-top: 0px; margin-bottom: 4px;&quot;&gt;&lt;span style=&quot;background-color: initial; text-align: left;&quot;&gt;坐标记录器&lt;/span&gt;&lt;/p&gt;&lt;div&gt;&lt;div style=&quot;font-size: 9px;&quot;&gt;&lt;div style=&quot;font-size: 8px;&quot;&gt;记录坐标，用于&lt;span style=&quot;background-color: initial;&quot;&gt;设备读取。&lt;/span&gt;&lt;span style=&quot;background-color: initial;&quot;&gt;可记录方块，实体的坐标。&lt;/span&gt;&lt;/div&gt;&lt;/div&gt;&lt;/div&gt;&lt;p&gt;&lt;/p&gt;" style="rounded=1;whiteSpace=wrap;html=1;strokeColor=#003366;align=left;verticalAlign=top;spacingTop=0;spacing=2;arcSize=8;fontFamily=Helvetica;fontSize=10;fontColor=#000000;labelBackgroundColor=none;fillColor=#8FF8FF;horizontal=1;spacingLeft=4;spacingRight=4;" parent="1" vertex="1"><mxGeometry x="530" y="970" width="110" height="50" as="geometry"/></mxCell><mxCell id="2M-5-x-tlaTdOeUqfLkU-57" value="&lt;p style=&quot;line-height: 120%; margin-top: 0px; margin-bottom: 4px;&quot;&gt;&lt;span style=&quot;background-color: initial;&quot;&gt;水晶基座模型&lt;/span&gt;&lt;/p&gt;&lt;div&gt;&lt;div style=&quot;font-size: 9px;&quot;&gt;&lt;div style=&quot;text-align: left; font-size: 8px;&quot;&gt;水晶设备不好分辨是干什么的，多一个基座用于画图案便于分辨。&lt;/div&gt;&lt;/div&gt;&lt;/div&gt;&lt;p&gt;&lt;/p&gt;" style="rounded=1;whiteSpace=wrap;html=1;strokeColor=#003366;align=center;verticalAlign=top;spacingTop=0;spacing=2;arcSize=8;fontFamily=Helvetica;fontSize=10;fontColor=#000000;labelBackgroundColor=none;fillColor=#8FF8FF;horizontal=1;spacingLeft=4;spacingRight=4;imageAlign=left;" parent="1" vertex="1"><mxGeometry x="720" y="950" width="110" height="60" as="geometry"/></mxCell><mxCell id="2M-5-x-tlaTdOeUqfLkU-65" value="野性物流&lt;div style=&quot;font-size: 8px;&quot;&gt;储存！物流！传送！&lt;/div&gt;" style="whiteSpace=wrap;html=1;verticalAlign=top;fillColor=#FFE6CC;fontColor=#000000;rounded=1;arcSize=5;labelBackgroundColor=none;spacing=6;spacingTop=0;gradientColor=none;" parent="1" vertex="1"><mxGeometry x="-260" y="600" width="340" height="600" as="geometry"/></mxCell><mxCell id="2M-5-x-tlaTdOeUqfLkU-69" value="&lt;p style=&quot;line-height: 120%; margin-top: 0px; margin-bottom: 4px;&quot;&gt;&lt;span style=&quot;&quot;&gt;超级储存终端&lt;/span&gt;&lt;/p&gt;&lt;div&gt;&lt;div style=&quot;&quot;&gt;&lt;span style=&quot;font-size: 8px;&quot;&gt;互交储存的物品&lt;/span&gt;&lt;/div&gt;&lt;/div&gt;&lt;div style=&quot;&quot;&gt;&lt;span style=&quot;font-size: 8px;&quot;&gt;带合成格&lt;/span&gt;&lt;/div&gt;&lt;p&gt;&lt;/p&gt;" style="rounded=1;whiteSpace=wrap;html=1;strokeColor=#CC6600;align=center;verticalAlign=top;spacingTop=0;spacing=2;arcSize=8;fontFamily=Helvetica;fontSize=10;fontColor=#000000;labelBackgroundColor=none;fillColor=#FFCC99;horizontal=1;spacingLeft=4;spacingRight=4;" parent="1" vertex="1"><mxGeometry x="-240" y="770" width="100" height="60" as="geometry"/></mxCell><mxCell id="2M-5-x-tlaTdOeUqfLkU-70" value="&lt;p style=&quot;line-height: 120%; margin-top: 0px; margin-bottom: 4px;&quot;&gt;&lt;span style=&quot;&quot;&gt;储存超立方&lt;/span&gt;&lt;/p&gt;&lt;div&gt;&lt;div style=&quot;text-align: left;&quot;&gt;&lt;span style=&quot;font-size: 8px;&quot;&gt;创建储存频道的物品&lt;/span&gt;&lt;/div&gt;&lt;/div&gt;&lt;p&gt;&lt;/p&gt;" style="rounded=1;whiteSpace=wrap;html=1;strokeColor=#CC6600;align=center;verticalAlign=top;spacingTop=0;spacing=2;arcSize=8;fontFamily=Helvetica;fontSize=10;fontColor=#000000;labelBackgroundColor=none;fillColor=#FFCC99;horizontal=1;spacingLeft=4;spacingRight=4;" parent="1" vertex="1"><mxGeometry x="-240" y="720" width="100" height="40" as="geometry"/></mxCell><mxCell id="2M-5-x-tlaTdOeUqfLkU-72" value="&lt;p style=&quot;text-align: center; line-height: 120%; margin-top: 0px; margin-bottom: 4px;&quot;&gt;&lt;span style=&quot;&quot;&gt;标准化的Menu&lt;/span&gt;&lt;br&gt;&lt;/p&gt;&lt;div&gt;&lt;div style=&quot;&quot;&gt;&lt;div style=&quot;font-size: 8px;&quot;&gt;适应各类物品方块的菜单，封装样式便于更换，根据手持物自动启用app tab&lt;span style=&quot;background-color: initial;&quot;&gt;，比如打开魔法方块菜单后，如果手持功能棒，则增加home tab 和已选择的app的tab，如果手持有app的物品，则只增加app的tab，注意不是该app菜单里的的tab，而是一个显示该物品的tab，点击切换至该app，原来的方块菜单会化成一个tab。&lt;/span&gt;&lt;/div&gt;&lt;div style=&quot;font-size: 8px;&quot;&gt;提交合成表后，可以从其他tab里找物品填充，比如在方块菜单里，如果手持的功能棒开着超级储存app，可以从超级储存里补充物品。&lt;/div&gt;&lt;div style=&quot;font-size: 8px;&quot;&gt;左边的tab极端情况下可能严重空间不足，此时变成一个按钮，点击出浮动list。&lt;/div&gt;&lt;div style=&quot;font-size: 8px;&quot;&gt;浮动list表，类似win桌面右键那种。&lt;/div&gt;&lt;div style=&quot;font-size: 8px;&quot;&gt;滚动条自带，按需开启 。&lt;/div&gt;&lt;div style=&quot;font-size: 8px;&quot;&gt;哼嗯嗯啊啊啊啊啊啊好难好难&amp;nbsp; &amp;nbsp; &amp;nbsp; &amp;nbsp;自带tooltip自适应大小功能？&lt;/div&gt;&lt;/div&gt;&lt;/div&gt;&lt;p&gt;&lt;/p&gt;" style="rounded=1;whiteSpace=wrap;html=1;strokeColor=#003366;align=left;verticalAlign=top;spacingTop=0;spacing=2;arcSize=8;fontFamily=Helvetica;fontSize=10;fontColor=#000000;labelBackgroundColor=none;fillColor=#8FF8FF;horizontal=1;spacingLeft=4;spacingRight=4;" parent="1" vertex="1"><mxGeometry x="250" y="1100" width="440" height="120" as="geometry"/></mxCell><mxCell id="2M-5-x-tlaTdOeUqfLkU-73" style="edgeStyle=none;shape=connector;rounded=1;orthogonalLoop=1;jettySize=auto;html=1;entryX=0.002;entryY=0.521;entryDx=0;entryDy=0;entryPerimeter=0;strokeColor=#919191;strokeWidth=2;align=center;verticalAlign=middle;fontFamily=Helvetica;fontSize=11;fontColor=default;labelBackgroundColor=default;elbow=vertical;endArrow=none;endFill=0;" parent="1" source="2M-5-x-tlaTdOeUqfLkU-65" target="YGNYaZbymLhRgF-y6VRQ-4" edge="1"><mxGeometry relative="1" as="geometry"/></mxCell><mxCell id="2M-5-x-tlaTdOeUqfLkU-80" value="" style="group" parent="1" vertex="1" connectable="0"><mxGeometry x="-520" y="745" width="120" height="210" as="geometry"/></mxCell><mxCell id="2M-5-x-tlaTdOeUqfLkU-68" value="黑洞储存&lt;div style=&quot;font-size: 8px;&quot;&gt;之前的模组&lt;/div&gt;" style="whiteSpace=wrap;html=1;verticalAlign=top;fillColor=#FFCC99;fontColor=#000000;rounded=1;arcSize=9;labelBackgroundColor=none;spacing=6;spacingTop=0;gradientColor=none;" parent="2M-5-x-tlaTdOeUqfLkU-80" vertex="1"><mxGeometry width="120" height="210" as="geometry"/></mxCell><mxCell id="2M-5-x-tlaTdOeUqfLkU-76" value="&lt;p style=&quot;line-height: 120%; margin-top: 0px; margin-bottom: 4px;&quot;&gt;&lt;span style=&quot;&quot;&gt;黑洞储存核心&lt;/span&gt;&lt;/p&gt;&lt;p&gt;&lt;/p&gt;" style="rounded=1;whiteSpace=wrap;html=1;strokeColor=#CC6600;align=center;verticalAlign=top;spacingTop=0;spacing=2;arcSize=8;fontFamily=Helvetica;fontSize=10;fontColor=#000000;labelBackgroundColor=none;fillColor=#FFCC99;horizontal=1;spacingLeft=4;spacingRight=4;" parent="2M-5-x-tlaTdOeUqfLkU-80" vertex="1"><mxGeometry x="10" y="48.129999999999995" width="100" height="27.5" as="geometry"/></mxCell><mxCell id="2M-5-x-tlaTdOeUqfLkU-77" value="&lt;p style=&quot;line-height: 120%; margin-top: 0px; margin-bottom: 4px;&quot;&gt;控制面板&lt;/p&gt;&lt;p&gt;&lt;/p&gt;" style="rounded=1;whiteSpace=wrap;html=1;strokeColor=#CC6600;align=center;verticalAlign=top;spacingTop=0;spacing=2;arcSize=8;fontFamily=Helvetica;fontSize=10;fontColor=#000000;labelBackgroundColor=none;fillColor=#FFCC99;horizontal=1;spacingLeft=4;spacingRight=4;" parent="2M-5-x-tlaTdOeUqfLkU-80" vertex="1"><mxGeometry x="10" y="88.13" width="100" height="27.5" as="geometry"/></mxCell><mxCell id="2M-5-x-tlaTdOeUqfLkU-78" value="&lt;p style=&quot;line-height: 120%; margin-top: 0px; margin-bottom: 4px;&quot;&gt;被动端口&lt;/p&gt;&lt;p&gt;&lt;/p&gt;" style="rounded=1;whiteSpace=wrap;html=1;strokeColor=#CC6600;align=center;verticalAlign=top;spacingTop=0;spacing=2;arcSize=8;fontFamily=Helvetica;fontSize=10;fontColor=#000000;labelBackgroundColor=none;fillColor=#FFCC99;horizontal=1;spacingLeft=4;spacingRight=4;" parent="2M-5-x-tlaTdOeUqfLkU-80" vertex="1"><mxGeometry x="10" y="166.25" width="100" height="29.37" as="geometry"/></mxCell><mxCell id="2M-5-x-tlaTdOeUqfLkU-79" value="&lt;p style=&quot;line-height: 120%; margin-top: 0px; margin-bottom: 4px;&quot;&gt;主动端口&lt;/p&gt;&lt;p&gt;&lt;/p&gt;" style="rounded=1;whiteSpace=wrap;html=1;strokeColor=#CC6600;align=center;verticalAlign=top;spacingTop=0;spacing=2;arcSize=8;fontFamily=Helvetica;fontSize=10;fontColor=#000000;labelBackgroundColor=none;fillColor=#FFCC99;horizontal=1;spacingLeft=4;spacingRight=4;" parent="2M-5-x-tlaTdOeUqfLkU-80" vertex="1"><mxGeometry x="10" y="126.25999999999999" width="100" height="28.75" as="geometry"/></mxCell><mxCell id="2M-5-x-tlaTdOeUqfLkU-81" style="edgeStyle=none;shape=connector;rounded=1;orthogonalLoop=1;jettySize=auto;html=1;entryX=0;entryY=0.5;entryDx=0;entryDy=0;strokeColor=#919191;strokeWidth=2;align=center;verticalAlign=middle;fontFamily=Helvetica;fontSize=11;fontColor=default;labelBackgroundColor=default;elbow=vertical;endArrow=none;endFill=0;exitX=1;exitY=0.5;exitDx=0;exitDy=0;" parent="1" source="2M-5-x-tlaTdOeUqfLkU-76" target="2M-5-x-tlaTdOeUqfLkU-70" edge="1"><mxGeometry relative="1" as="geometry"/></mxCell><mxCell id="2M-5-x-tlaTdOeUqfLkU-82" style="edgeStyle=none;shape=connector;rounded=1;orthogonalLoop=1;jettySize=auto;html=1;entryX=0;entryY=0.5;entryDx=0;entryDy=0;strokeColor=#919191;strokeWidth=2;align=center;verticalAlign=middle;fontFamily=Helvetica;fontSize=11;fontColor=default;labelBackgroundColor=default;elbow=vertical;endArrow=none;endFill=0;exitX=1;exitY=0.5;exitDx=0;exitDy=0;" parent="1" source="2M-5-x-tlaTdOeUqfLkU-77" target="2M-5-x-tlaTdOeUqfLkU-69" edge="1"><mxGeometry relative="1" as="geometry"/></mxCell><mxCell id="2M-5-x-tlaTdOeUqfLkU-83" value="&lt;p style=&quot;text-align: center; line-height: 120%; margin-top: 0px; margin-bottom: 4px;&quot;&gt;&lt;span style=&quot;&quot;&gt;水晶路由器&lt;/span&gt;&lt;/p&gt;&lt;div&gt;&lt;div style=&quot;&quot;&gt;&lt;span style=&quot;font-size: 8px;&quot;&gt;传输各种东西，用各种规则，玩家配置，高度自定义的，可红石化的。&lt;/span&gt;&lt;/div&gt;&lt;/div&gt;&lt;div style=&quot;&quot;&gt;&lt;span style=&quot;font-size: 8px;&quot;&gt;有大中小的区分，越强性能越好，能用的规则更多。&lt;/span&gt;&lt;/div&gt;&lt;div style=&quot;&quot;&gt;&lt;span style=&quot;font-size: 8px;&quot;&gt;路由条目：1&amp;nbsp; 4&amp;nbsp; 16&lt;/span&gt;&lt;/div&gt;&lt;div style=&quot;&quot;&gt;&lt;span style=&quot;font-size: 8px;&quot;&gt;传输距离：4&amp;nbsp; 16&amp;nbsp; 64&amp;nbsp; &amp;nbsp; &amp;nbsp;（使用世界定位器时无视）&lt;/span&gt;&lt;/div&gt;&lt;div style=&quot;&quot;&gt;&lt;span style=&quot;font-size: 8px;&quot;&gt;最大频率： 16&amp;nbsp; 4&amp;nbsp; 1&amp;nbsp; &amp;nbsp; &amp;nbsp;（多少刻一次）&lt;/span&gt;&lt;/div&gt;&lt;div style=&quot;&quot;&gt;&lt;span style=&quot;font-size: 8px;&quot;&gt;可配置是否消耗魔能。&lt;/span&gt;&lt;/div&gt;&lt;div style=&quot;&quot;&gt;&lt;span style=&quot;font-size: 8px;&quot;&gt;&lt;br&gt;&lt;/span&gt;&lt;/div&gt;&lt;p&gt;&lt;/p&gt;" style="rounded=1;whiteSpace=wrap;html=1;strokeColor=#CC6600;align=left;verticalAlign=top;spacingTop=0;spacing=2;arcSize=2;fontFamily=Helvetica;fontSize=10;fontColor=#000000;labelBackgroundColor=none;fillColor=#FFCC99;horizontal=1;spacingLeft=4;spacingRight=4;" parent="1" vertex="1"><mxGeometry x="-240" y="840" width="300" height="340" as="geometry"/></mxCell><mxCell id="2M-5-x-tlaTdOeUqfLkU-86" value="&lt;p style=&quot;line-height: 120%; margin-top: 0px; margin-bottom: 4px;&quot;&gt;&lt;span style=&quot;&quot;&gt;逻辑水晶&lt;/span&gt;&lt;/p&gt;&lt;div&gt;&lt;div style=&quot;text-align: left;&quot;&gt;&lt;span style=&quot;font-size: 8px;&quot;&gt;类似路由水晶，但只传输红石信号。可定义逻辑变量&lt;/span&gt;&lt;/div&gt;&lt;/div&gt;&lt;p&gt;&lt;/p&gt;" style="rounded=1;whiteSpace=wrap;html=1;strokeColor=#CC6600;align=center;verticalAlign=top;spacingTop=0;spacing=2;arcSize=8;fontFamily=Helvetica;fontSize=10;fontColor=#000000;labelBackgroundColor=none;fillColor=#FFCC99;horizontal=1;spacingLeft=4;spacingRight=4;" parent="1" vertex="1"><mxGeometry x="-240" y="650" width="100" height="60" as="geometry"/></mxCell><mxCell id="2M-5-x-tlaTdOeUqfLkU-117" value="&lt;p style=&quot;line-height: 120%; margin-top: 0px; margin-bottom: 4px;&quot;&gt;&lt;font style=&quot;font-size: 8px;&quot;&gt;超级储存端口规则&lt;/font&gt;&lt;/p&gt;&lt;p style=&quot;line-height: 80%; margin-top: 0px; margin-bottom: 4px;&quot;&gt;&lt;font style=&quot;font-size: 7px;&quot;&gt;要求中级&lt;span style=&quot;background-color: initial;&quot;&gt;&lt;font style=&quot;font-size: 7px;&quot;&gt;&lt;br&gt;&lt;/font&gt;&lt;/span&gt;&lt;/font&gt;&lt;/p&gt;&lt;p style=&quot;line-height: 80%; margin-top: 0px; margin-bottom: 4px;&quot;&gt;&lt;span style=&quot;background-color: initial;&quot;&gt;&lt;font style=&quot;font-size: 7px;&quot;&gt;频道&lt;/font&gt;&lt;/span&gt;&lt;/p&gt;&lt;p style=&quot;line-height: 80%; margin-top: 0px; margin-bottom: 4px;&quot;&gt;&lt;span style=&quot;background-color: initial;&quot;&gt;自身坐标过滤&lt;/span&gt;&lt;/p&gt;&lt;p style=&quot;font-size: 7px;&quot;&gt;&lt;/p&gt;" style="rounded=1;whiteSpace=wrap;html=1;strokeColor=#CC6600;align=left;verticalAlign=top;spacingTop=0;spacing=2;arcSize=0;fontFamily=Helvetica;fontSize=7;fontColor=#000000;labelBackgroundColor=none;fillColor=#FFCC99;horizontal=1;spacingLeft=4;spacingRight=4;labelPosition=center;verticalLabelPosition=middle;" parent="1" vertex="1"><mxGeometry x="-230" y="950" width="80" height="50" as="geometry"/></mxCell><mxCell id="2M-5-x-tlaTdOeUqfLkU-118" value="&lt;p style=&quot;line-height: 120%; margin-top: 0px; margin-bottom: 4px; font-size: 8px;&quot;&gt;&lt;font style=&quot;font-size: 8px;&quot;&gt;超级储存输出&lt;/font&gt;&lt;/p&gt;&lt;p style=&quot;line-height: 80%; margin-top: 0px; margin-bottom: 4px; font-size: 7px;&quot;&gt;&lt;font style=&quot;font-size: 7px;&quot;&gt;要求中级&lt;span style=&quot;background-color: initial;&quot;&gt;&lt;br&gt;&lt;/span&gt;&lt;/font&gt;&lt;/p&gt;&lt;p style=&quot;line-height: 80%; margin-top: 0px; margin-bottom: 4px; font-size: 7px;&quot;&gt;&lt;span style=&quot;background-color: initial;&quot;&gt;&lt;font style=&quot;font-size: 7px;&quot;&gt;频道&lt;/font&gt;&lt;/span&gt;&lt;/p&gt;&lt;p style=&quot;line-height: 80%; margin-top: 0px; margin-bottom: 4px; font-size: 7px;&quot;&gt;&lt;span style=&quot;background-color: initial;&quot;&gt;&lt;font style=&quot;font-size: 7px;&quot;&gt;物品过滤器&lt;/font&gt;&lt;/span&gt;&lt;/p&gt;&lt;p style=&quot;line-height: 80%; margin-top: 0px; margin-bottom: 4px; font-size: 7px;&quot;&gt;&lt;span style=&quot;background-color: initial;&quot;&gt;&lt;font style=&quot;font-size: 7px;&quot;&gt;坐标过滤器&lt;/font&gt;&lt;/span&gt;&lt;/p&gt;&lt;p style=&quot;font-size: 8px;&quot;&gt;&lt;/p&gt;" style="rounded=1;whiteSpace=wrap;html=1;strokeColor=#CC6600;align=left;verticalAlign=top;spacingTop=0;spacing=2;arcSize=0;fontFamily=Helvetica;fontSize=8;fontColor=#000000;labelBackgroundColor=none;fillColor=#FFCC99;horizontal=1;spacingLeft=4;spacingRight=4;" parent="1" vertex="1"><mxGeometry x="-230" y="1010" width="80" height="62.5" as="geometry"/></mxCell><mxCell id="2M-5-x-tlaTdOeUqfLkU-119" value="&lt;p style=&quot;line-height: 120%; margin-top: 0px; margin-bottom: 4px; font-size: 8px;&quot;&gt;&lt;font style=&quot;font-size: 8px;&quot;&gt;超级储存输入&lt;/font&gt;&lt;/p&gt;&lt;span style=&quot;font-size: 7px;&quot;&gt;&lt;div&gt;&lt;span style=&quot;font-size: 7px;&quot;&gt;要求中级&lt;/span&gt;&lt;/div&gt;坐标过滤器&lt;/span&gt;&lt;div&gt;&lt;span style=&quot;font-size: 7px; background-color: initial;&quot;&gt;物品过滤器&lt;/span&gt;&lt;div&gt;&lt;div&gt;&lt;p style=&quot;line-height: 120%; margin-top: 0px; margin-bottom: 4px; font-size: 8px;&quot;&gt;&lt;span style=&quot;font-size: 7px; background-color: initial;&quot;&gt;频道&lt;br&gt;&lt;/span&gt;&lt;/p&gt;&lt;p style=&quot;font-size: 8px;&quot;&gt;&lt;/p&gt;&lt;/div&gt;&lt;/div&gt;&lt;/div&gt;" style="rounded=1;whiteSpace=wrap;html=1;strokeColor=#CC6600;align=left;verticalAlign=top;spacingTop=0;spacing=2;arcSize=0;fontFamily=Helvetica;fontSize=8;fontColor=#000000;labelBackgroundColor=none;fillColor=#FFCC99;horizontal=1;spacingLeft=4;spacingRight=4;" parent="1" vertex="1"><mxGeometry x="-230" y="1080" width="80" height="62.5" as="geometry"/></mxCell><mxCell id="2M-5-x-tlaTdOeUqfLkU-120" style="edgeStyle=none;shape=connector;rounded=1;orthogonalLoop=1;jettySize=auto;html=1;entryX=0;entryY=0.5;entryDx=0;entryDy=0;strokeColor=#919191;strokeWidth=2;align=center;verticalAlign=middle;fontFamily=Helvetica;fontSize=11;fontColor=default;labelBackgroundColor=default;elbow=vertical;endArrow=none;endFill=0;exitX=1;exitY=0.5;exitDx=0;exitDy=0;" parent="1" source="2M-5-x-tlaTdOeUqfLkU-79" target="2M-5-x-tlaTdOeUqfLkU-117" edge="1"><mxGeometry relative="1" as="geometry"/></mxCell><mxCell id="2M-5-x-tlaTdOeUqfLkU-121" style="edgeStyle=none;shape=connector;rounded=1;orthogonalLoop=1;jettySize=auto;html=1;entryX=0;entryY=0.5;entryDx=0;entryDy=0;strokeColor=#919191;strokeWidth=2;align=center;verticalAlign=middle;fontFamily=Helvetica;fontSize=11;fontColor=default;labelBackgroundColor=default;elbow=vertical;endArrow=none;endFill=0;exitX=1;exitY=0.5;exitDx=0;exitDy=0;" parent="1" source="2M-5-x-tlaTdOeUqfLkU-78" target="2M-5-x-tlaTdOeUqfLkU-118" edge="1"><mxGeometry relative="1" as="geometry"/></mxCell><mxCell id="2M-5-x-tlaTdOeUqfLkU-122" style="edgeStyle=none;shape=connector;rounded=1;orthogonalLoop=1;jettySize=auto;html=1;entryX=0;entryY=0.5;entryDx=0;entryDy=0;strokeColor=#919191;strokeWidth=2;align=center;verticalAlign=middle;fontFamily=Helvetica;fontSize=11;fontColor=default;labelBackgroundColor=default;elbow=vertical;endArrow=none;endFill=0;exitX=1;exitY=0.5;exitDx=0;exitDy=0;" parent="1" source="2M-5-x-tlaTdOeUqfLkU-78" target="2M-5-x-tlaTdOeUqfLkU-119" edge="1"><mxGeometry relative="1" as="geometry"/></mxCell><mxCell id="p2QV5_GQoiamzhqP6Ohr-1" value="" style="group;fontSize=10;spacingLeft=4;spacingRight=4;" parent="1" vertex="1" connectable="0"><mxGeometry x="-130" y="770" width="90" height="60" as="geometry"/></mxCell><mxCell id="p2QV5_GQoiamzhqP6Ohr-2" value="&lt;font style=&quot;font-size: 10px;&quot;&gt;抽象合成终端&lt;/font&gt;" style="whiteSpace=wrap;html=1;verticalAlign=top;fillColor=#ffcc99;fontColor=#000000;rounded=1;arcSize=9;labelBackgroundColor=none;spacing=2;spacingTop=0;gradientColor=none;strokeColor=#CC6600;fontSize=10;spacingLeft=4;spacingRight=4;" parent="p2QV5_GQoiamzhqP6Ohr-1" vertex="1"><mxGeometry width="90" height="60.000000000000014" as="geometry"/></mxCell><mxCell id="p2QV5_GQoiamzhqP6Ohr-3" value="&lt;div style=&quot;font-size: 8px;&quot;&gt;自带合成格与逻辑，抽象容器，物品补充等。&lt;/div&gt;" style="text;html=1;align=left;verticalAlign=top;whiteSpace=wrap;rounded=0;fontFamily=Helvetica;fontSize=8;fontColor=#000000;labelBackgroundColor=none;spacingLeft=5;spacingRight=5;spacing=0;" parent="p2QV5_GQoiamzhqP6Ohr-1" vertex="1"><mxGeometry y="20" width="90" height="40" as="geometry"/></mxCell><mxCell id="p2QV5_GQoiamzhqP6Ohr-10" value="" style="group;fontSize=10;spacingLeft=4;spacingRight=4;" parent="1" vertex="1" connectable="0"><mxGeometry x="-30" y="770" width="95" height="60" as="geometry"/></mxCell><mxCell id="p2QV5_GQoiamzhqP6Ohr-11" value="仓管水晶" style="whiteSpace=wrap;html=1;verticalAlign=top;fillColor=#ffcc99;fontColor=#000000;rounded=1;arcSize=9;labelBackgroundColor=none;spacing=2;spacingTop=0;gradientColor=none;strokeColor=#CC6600;fontSize=10;spacingLeft=4;spacingRight=4;" parent="p2QV5_GQoiamzhqP6Ohr-10" vertex="1"><mxGeometry width="95" height="60" as="geometry"/></mxCell><mxCell id="p2QV5_GQoiamzhqP6Ohr-12" value="&lt;div style=&quot;font-size: 8px;&quot;&gt;将多个容器当成一个用&lt;/div&gt;&lt;div style=&quot;font-size: 8px;&quot;&gt;联动合成传输水晶&lt;/div&gt;" style="text;html=1;align=center;verticalAlign=top;whiteSpace=wrap;rounded=0;fontFamily=Helvetica;fontSize=8;fontColor=#000000;labelBackgroundColor=none;spacingLeft=5;spacingRight=5;spacing=0;" parent="p2QV5_GQoiamzhqP6Ohr-10" vertex="1"><mxGeometry y="20" width="95" height="40" as="geometry"/></mxCell><mxCell id="p2QV5_GQoiamzhqP6Ohr-14" style="edgeStyle=none;shape=connector;rounded=1;orthogonalLoop=1;jettySize=auto;html=1;strokeColor=#919191;strokeWidth=2;align=center;verticalAlign=middle;fontFamily=Helvetica;fontSize=11;fontColor=default;labelBackgroundColor=default;elbow=vertical;endArrow=none;endFill=0;" parent="1" source="p2QV5_GQoiamzhqP6Ohr-2" target="2M-5-x-tlaTdOeUqfLkU-69" edge="1"><mxGeometry relative="1" as="geometry"/></mxCell><mxCell id="p2QV5_GQoiamzhqP6Ohr-15" style="edgeStyle=none;shape=connector;rounded=1;orthogonalLoop=1;jettySize=auto;html=1;strokeColor=#919191;strokeWidth=2;align=center;verticalAlign=middle;fontFamily=Helvetica;fontSize=11;fontColor=default;labelBackgroundColor=default;elbow=vertical;endArrow=none;endFill=0;" parent="1" source="p2QV5_GQoiamzhqP6Ohr-2" target="p2QV5_GQoiamzhqP6Ohr-11" edge="1"><mxGeometry relative="1" as="geometry"/></mxCell><mxCell id="p2QV5_GQoiamzhqP6Ohr-18" value="&lt;p style=&quot;line-height: 120%; margin-top: 0px; margin-bottom: 4px;&quot;&gt;&lt;font style=&quot;font-size: 8px;&quot;&gt;c 泛型传输规则&lt;/font&gt;&lt;/p&gt;&lt;p style=&quot;line-height: 80%; margin-top: 0px; margin-bottom: 4px;&quot;&gt;&lt;font style=&quot;font-size: 7px;&quot;&gt;c 坐标过滤&lt;span style=&quot;background-color: initial;&quot;&gt;&lt;font style=&quot;font-size: 7px;&quot;&gt;&lt;br&gt;&lt;/font&gt;&lt;/span&gt;&lt;/font&gt;&lt;/p&gt;&lt;p style=&quot;line-height: 80%; margin-top: 0px; margin-bottom: 4px;&quot;&gt;t 过滤&lt;/p&gt;&lt;p style=&quot;line-height: 80%; margin-top: 0px; margin-bottom: 4px;&quot;&gt;&lt;span style=&quot;background-color: initial;&quot;&gt;c 坐标过滤&lt;/span&gt;&lt;/p&gt;&lt;p style=&quot;font-size: 7px;&quot;&gt;&lt;/p&gt;" style="rounded=1;whiteSpace=wrap;html=1;strokeColor=#CC6600;align=left;verticalAlign=top;spacingTop=0;spacing=2;arcSize=0;fontFamily=Helvetica;fontSize=7;fontColor=#000000;labelBackgroundColor=none;fillColor=#FFCC99;horizontal=1;spacingLeft=4;spacingRight=4;labelPosition=center;verticalLabelPosition=middle;" parent="1" vertex="1"><mxGeometry x="-140" y="950" width="80" height="50" as="geometry"/></mxCell><mxCell id="p2QV5_GQoiamzhqP6Ohr-23" value="" style="group;fontSize=10;spacingLeft=4;spacingRight=4;" parent="1" vertex="1" connectable="0"><mxGeometry x="720" y="1020" width="110" height="60" as="geometry"/></mxCell><mxCell id="p2QV5_GQoiamzhqP6Ohr-24" value="&lt;font style=&quot;font-size: 10px;&quot;&gt;团队api&lt;/font&gt;" style="whiteSpace=wrap;html=1;verticalAlign=top;fillColor=#8ff8ff;fontColor=#000000;rounded=1;arcSize=9;labelBackgroundColor=none;spacing=2;spacingTop=0;gradientColor=none;strokeColor=#003266;fontSize=10;spacingLeft=4;spacingRight=4;" parent="p2QV5_GQoiamzhqP6Ohr-23" vertex="1"><mxGeometry width="110.00000000000001" height="60.000000000000014" as="geometry"/></mxCell><mxCell id="p2QV5_GQoiamzhqP6Ohr-25" value="&lt;div style=&quot;font-size: 8px;&quot;&gt;用于魔法生物寻敌、队伤、副本进度、设备权限等等，单人世界应忽略。&lt;/div&gt;" style="text;html=1;align=left;verticalAlign=top;whiteSpace=wrap;rounded=0;fontFamily=Helvetica;fontSize=8;fontColor=#000000;labelBackgroundColor=none;spacingLeft=5;spacingRight=5;spacing=0;" parent="p2QV5_GQoiamzhqP6Ohr-23" vertex="1"><mxGeometry y="20" width="110.00000000000001" height="40" as="geometry"/></mxCell><mxCell id="p2QV5_GQoiamzhqP6Ohr-26" value="" style="group;fontSize=10;spacingLeft=4;spacingRight=4;" parent="1" vertex="1" connectable="0"><mxGeometry x="-130" y="650" width="190" height="60" as="geometry"/></mxCell><mxCell id="p2QV5_GQoiamzhqP6Ohr-27" value="&lt;font style=&quot;font-size: 10px;&quot;&gt;传送立方与传送终端&lt;/font&gt;" style="whiteSpace=wrap;html=1;verticalAlign=top;fillColor=#ffcc99;fontColor=#000000;rounded=1;arcSize=9;labelBackgroundColor=none;spacing=2;spacingTop=0;gradientColor=none;strokeColor=#CC6600;fontSize=10;spacingLeft=4;spacingRight=4;" parent="p2QV5_GQoiamzhqP6Ohr-26" vertex="1"><mxGeometry width="190" height="60" as="geometry"/></mxCell><mxCell id="p2QV5_GQoiamzhqP6Ohr-28" value="&lt;div style=&quot;font-size: 8px;&quot;&gt;频道园区传送列表，立方下方有激活的信标才能进行远距离传送，传送的终点必须是立方或终端。短距传送距离可配置。+APP&lt;/div&gt;" style="text;html=1;align=left;verticalAlign=top;whiteSpace=wrap;rounded=0;fontFamily=Helvetica;fontSize=8;fontColor=#000000;labelBackgroundColor=none;spacingLeft=5;spacingRight=5;spacing=0;" parent="p2QV5_GQoiamzhqP6Ohr-26" vertex="1"><mxGeometry y="20" width="190" height="40" as="geometry"/></mxCell><mxCell id="p2QV5_GQoiamzhqP6Ohr-29" value="" style="group;fontSize=10;spacingLeft=4;spacingRight=4;" parent="1" vertex="1" connectable="0"><mxGeometry x="-130" y="720" width="190" height="40" as="geometry"/></mxCell><mxCell id="p2QV5_GQoiamzhqP6Ohr-30" value="&lt;font style=&quot;font-size: 10px;&quot;&gt;传送门&lt;/font&gt;" style="whiteSpace=wrap;html=1;verticalAlign=top;fillColor=#ffcc99;fontColor=#000000;rounded=1;arcSize=9;labelBackgroundColor=none;spacing=2;spacingTop=0;gradientColor=none;strokeColor=#CC6600;fontSize=10;spacingLeft=4;spacingRight=4;" parent="p2QV5_GQoiamzhqP6Ohr-29" vertex="1"><mxGeometry width="190" height="40.00000000000001" as="geometry"/></mxCell><mxCell id="p2QV5_GQoiamzhqP6Ohr-31" value="&lt;div style=&quot;font-size: 8px;&quot;&gt;不需要右键，接触就传送，右键打开gui配置。&lt;/div&gt;" style="text;html=1;align=left;verticalAlign=top;whiteSpace=wrap;rounded=0;fontFamily=Helvetica;fontSize=8;fontColor=#000000;labelBackgroundColor=none;spacingLeft=5;spacingRight=5;spacing=0;" parent="p2QV5_GQoiamzhqP6Ohr-29" vertex="1"><mxGeometry y="20" width="190" height="20" as="geometry"/></mxCell><mxCell id="4nciOf9_-e5pX5Ng2-0f-5" value="" style="group;fontSize=10;spacingLeft=4;spacingRight=4;" parent="1" vertex="1" connectable="0"><mxGeometry x="720" y="1090" width="110" height="80" as="geometry"/></mxCell><mxCell id="4nciOf9_-e5pX5Ng2-0f-6" value="&lt;font style=&quot;font-size: 10px;&quot;&gt;数值提供器&lt;/font&gt;" style="whiteSpace=wrap;html=1;verticalAlign=top;fillColor=#8ff8ff;fontColor=#000000;rounded=1;arcSize=9;labelBackgroundColor=none;spacing=2;spacingTop=0;gradientColor=none;strokeColor=#003266;fontSize=10;spacingLeft=4;spacingRight=4;" parent="4nciOf9_-e5pX5Ng2-0f-5" vertex="1"><mxGeometry width="110.00000000000001" height="80.00000000000001" as="geometry"/></mxCell><mxCell id="4nciOf9_-e5pX5Ng2-0f-7" value="&lt;div style=&quot;font-size: 8px;&quot;&gt;如其名&lt;/div&gt;&lt;div style=&quot;font-size: 8px;&quot;&gt;是的各种数值是变量，游戏内可以用命令更改。&lt;/div&gt;&lt;div style=&quot;font-size: 8px;&quot;&gt;当然要注意服务端和客户端的不同啊。&lt;/div&gt;" style="text;html=1;align=left;verticalAlign=top;whiteSpace=wrap;rounded=0;fontFamily=Helvetica;fontSize=8;fontColor=#000000;labelBackgroundColor=none;spacingLeft=5;spacingRight=5;spacing=0;" parent="4nciOf9_-e5pX5Ng2-0f-5" vertex="1"><mxGeometry y="20" width="110" height="60" as="geometry"/></mxCell><mxCell id="00gifAkSSoRRwv-9MTIw-1" value="&lt;p style=&quot;line-height: 120%; margin-top: 0px; margin-bottom: 4px;&quot;&gt;&lt;span style=&quot;&quot;&gt;合成传输水晶&lt;/span&gt;&lt;/p&gt;&lt;div&gt;&lt;div style=&quot;text-align: left;&quot;&gt;&lt;span style=&quot;font-size: 8px;&quot;&gt;仅能用合成表传输规则&lt;/span&gt;&lt;/div&gt;&lt;/div&gt;&lt;p&gt;&lt;/p&gt;" style="rounded=1;whiteSpace=wrap;html=1;strokeColor=#CC6600;align=center;verticalAlign=top;spacingTop=0;spacing=2;arcSize=8;fontFamily=Helvetica;fontSize=10;fontColor=#000000;labelBackgroundColor=none;fillColor=#FFCC99;horizontal=1;spacingLeft=4;spacingRight=4;" parent="1" vertex="1"><mxGeometry x="-50" y="922.5" width="100" height="60" as="geometry"/></mxCell><mxCell id="rqoL5XBdaJcyDSIohJLI-1" value="" style="group" parent="1" vertex="1" connectable="0"><mxGeometry x="-150" y="1450" width="450" height="420" as="geometry"/></mxCell><mxCell id="rqoL5XBdaJcyDSIohJLI-2" value="风格化" style="whiteSpace=wrap;html=1;verticalAlign=top;fillColor=#FFE6CC;fontColor=#000000;rounded=1;arcSize=4;labelBackgroundColor=none;spacing=6;spacingTop=0;gradientColor=none;" parent="rqoL5XBdaJcyDSIohJLI-1" vertex="1"><mxGeometry width="450" height="420" as="geometry"/></mxCell><mxCell id="rqoL5XBdaJcyDSIohJLI-3" value="&lt;div style=&quot;font-size: 8px;&quot;&gt;物品尽量做成3d，2d的尽量做动图。&lt;/div&gt;" style="text;html=1;align=left;verticalAlign=top;whiteSpace=wrap;rounded=0;fontFamily=Helvetica;fontSize=10;fontColor=#000000;labelBackgroundColor=none;spacingLeft=4;spacingRight=4;" parent="rqoL5XBdaJcyDSIohJLI-1" vertex="1"><mxGeometry y="30" width="450" height="390" as="geometry"/></mxCell><object label="line" id="4nciOf9_-e5pX5Ng2-0f-10"><mxCell parent="0"/></object><mxCell id="nao0nikxhL4ZIH5Kc70v-1" value="" style="group;fontSize=10;spacingLeft=4;spacingRight=4;" parent="4nciOf9_-e5pX5Ng2-0f-10" vertex="1" connectable="0"><mxGeometry x="720" y="1180" width="110" height="80" as="geometry"/></mxCell><mxCell id="nao0nikxhL4ZIH5Kc70v-2" value="&lt;font style=&quot;font-size: 10px;&quot;&gt;魔法物品基类&lt;/font&gt;" style="whiteSpace=wrap;html=1;verticalAlign=top;fillColor=#8ff8ff;fontColor=#000000;rounded=1;arcSize=9;labelBackgroundColor=none;spacing=2;spacingTop=0;gradientColor=none;strokeColor=#003266;fontSize=10;spacingLeft=4;spacingRight=4;" parent="nao0nikxhL4ZIH5Kc70v-1" vertex="1"><mxGeometry width="110.00000000000001" height="80.00000000000001" as="geometry"/></mxCell><mxCell id="nao0nikxhL4ZIH5Kc70v-3" value="&lt;div style=&quot;font-size: 8px;&quot;&gt;拦截左右键位，响应物品功能。&lt;/div&gt;" style="text;html=1;align=left;verticalAlign=top;whiteSpace=wrap;rounded=0;fontFamily=Helvetica;fontSize=8;fontColor=#000000;labelBackgroundColor=none;spacingLeft=5;spacingRight=5;spacing=0;" parent="nao0nikxhL4ZIH5Kc70v-1" vertex="1"><mxGeometry y="20" width="110" height="60" as="geometry"/></mxCell></root></mxGraphModel></diagram></mxfile>